<svg viewBox="0 0 24 24" fill="none" xmlns="http://www.w3.org/2000/svg" width="16" height="16" color="rgba(149, 151, 161, 1)" class="css-1iaye92"><circle cx="12" cy="12" r="12" fill="#D9D9D9"></circle><path d="M10.3481 5.60728C10.2115 5.66112 10.1074 5.7892 10.0804 5.93399C10.0693 5.99432 10.0683 5.99525 10.0265 6.01381C10.0033 6.02309 9.73093 6.13447 9.42141 6.2607C9.11189 6.386 8.78378 6.51965 8.69176 6.55771C8.49471 6.63845 7.60704 7.00043 7.27893 7.13316C7.21294 7.16007 6.88483 7.2928 6.55207 7.42924L5.94511 7.67612L5.89677 7.639C5.65975 7.45986 5.3177 7.59166 5.25171 7.88867C5.23404 7.96478 5.23776 8.04552 5.261 8.1105L5.27587 8.15133L4.80927 8.78619L4.34266 9.42104H4.28038C4.10285 9.42104 3.95227 9.53242 3.88907 9.71062C3.85468 9.80808 3.85468 9.87861 3.88721 9.9705C3.93926 10.1153 4.03407 10.209 4.16977 10.2499C4.18093 10.2536 4.24413 10.4875 4.40958 11.1298C4.53321 11.6115 4.69494 12.2398 4.76837 12.5257L4.90315 13.0445L4.86968 13.0807C4.72468 13.2413 4.70609 13.452 4.82135 13.6255C4.96542 13.8409 5.26844 13.8669 5.45341 13.6803L5.50639 13.6255L6.27508 13.7184C6.698 13.7694 7.05399 13.8112 7.06608 13.8112C7.08281 13.8112 7.09396 13.8195 7.10512 13.8399C7.11348 13.8557 7.13858 13.8919 7.16088 13.9188L7.20085 13.969L7.14508 14.1202C7.11441 14.2028 7.0447 14.3875 6.99172 14.5305C6.93502 14.6818 6.89784 14.7941 6.90249 14.7996C6.90713 14.8052 7.35887 15.1087 7.9082 15.4753L8.90554 16.1417L9.00314 16.1278C9.05705 16.1204 9.19741 16.1009 9.31452 16.0861C10.2812 15.9589 10.4913 15.9311 10.732 15.8995L11.0062 15.8624L11.0341 15.8976C11.115 15.9988 11.207 16.0536 11.3194 16.0647L11.3873 16.0712L11.4626 16.2011C11.5035 16.2726 11.7433 16.6856 11.9952 17.12C12.2471 17.5535 12.6653 18.2756 12.9237 18.7229L13.395 19.5369H14.0354C14.6126 19.5378 14.6749 19.536 14.6693 19.523C14.6665 19.5156 14.6452 19.4497 14.6229 19.3773C14.5476 19.1359 14.4035 18.6756 14.2167 18.0806C14.1144 17.7567 14.0326 17.4885 14.0345 17.4838C14.0354 17.4801 14.2232 17.6463 14.4518 17.8532C14.8497 18.2134 14.8673 18.2301 14.8589 18.2533C14.845 18.2895 14.8478 18.4241 14.8636 18.4779C14.9212 18.6691 15.0876 18.786 15.2902 18.7749C15.3572 18.7712 15.3795 18.7656 15.438 18.7368C15.5589 18.6774 15.6453 18.5605 15.6685 18.425C15.6806 18.3572 15.6611 18.3702 15.9046 18.2709C16.0022 18.231 16.309 18.1048 16.5878 17.9906C16.8667 17.8765 17.1604 17.7558 17.2403 17.7224L17.3862 17.663L17.4355 17.7001C17.5591 17.7938 17.7264 17.8096 17.8649 17.74C17.9216 17.7112 18.0034 17.6351 18.035 17.5813C18.1122 17.4495 18.1122 17.2722 18.035 17.1404C18.0081 17.095 17.9095 16.9994 17.8789 16.9901C17.8594 16.9836 17.8594 16.9826 17.8649 16.7274C17.8686 16.5854 17.8733 16.436 17.8761 16.3942L17.8817 16.3181L17.9235 16.293C18.0592 16.2141 18.1308 16.0861 18.1308 15.9199L18.1317 15.8392L18.3371 15.6953C18.4505 15.6164 18.7461 15.4085 18.9933 15.2349L19.4432 14.9175L19.4943 14.9407C19.5631 14.9723 19.6682 14.9797 19.7434 14.9574C19.8726 14.9203 19.9544 14.8516 20.0167 14.73C20.0548 14.6549 20.0548 14.6539 20.0548 14.5481C20.0548 14.4896 20.0511 14.4349 20.0465 14.4256C20.0418 14.4173 20.026 14.3848 20.0111 14.3541C19.9795 14.2882 19.8987 14.2028 19.8382 14.1741C19.8141 14.162 19.7918 14.1481 19.7881 14.1425C19.7825 14.1332 19.7723 13.9968 19.6784 12.651C19.6561 12.3215 19.63 11.9604 19.6226 11.8491L19.6087 11.6458L19.6291 11.6319C19.6737 11.6022 19.7397 11.5242 19.7676 11.4676C19.8717 11.2551 19.7806 10.9952 19.565 10.894C19.512 10.8699 19.4878 10.8643 19.4163 10.8615L19.3307 10.8578L19.1039 10.5357C18.1577 9.19271 17.3175 8.00283 17.3054 7.98984C17.2933 7.97499 17.2933 7.96849 17.3063 7.92487C17.3286 7.84876 17.3323 7.80142 17.3221 7.73367C17.3082 7.64178 17.2598 7.54989 17.192 7.48771C17.0507 7.35684 16.8639 7.33642 16.7031 7.4348L16.6389 7.47379L15.9 7.27702C15.4938 7.16843 15.1173 7.06819 15.0634 7.05426C15.0095 7.03941 14.7381 6.96702 14.4593 6.89277C13.9852 6.76654 13.6906 6.68857 12.1774 6.2839C11.8502 6.19666 11.4319 6.08528 11.2479 6.03609C11.0638 5.98782 10.9086 5.9442 10.903 5.93956C10.8974 5.93492 10.89 5.91636 10.8872 5.89965C10.8705 5.79384 10.7692 5.67318 10.6539 5.61935C10.5879 5.58965 10.5796 5.58779 10.4885 5.58872C10.4178 5.58965 10.3807 5.59429 10.3481 5.60728ZM10.8677 6.27926C10.9021 6.28947 11.8623 6.54564 12.1913 6.63289C12.3865 6.68486 13.4052 6.95681 13.6134 7.0125C13.8096 7.0654 14.8413 7.34013 15.1796 7.43016C15.2057 7.43759 15.5003 7.51555 15.8349 7.60558C16.1695 7.69469 16.4549 7.77079 16.4688 7.77358C16.4902 7.77915 16.4939 7.78564 16.4995 7.82741C16.5023 7.85433 16.5116 7.89795 16.519 7.92487L16.533 7.97313L16.2876 8.32397C16.0013 8.73235 15.3618 9.64658 15.1898 9.89254C15.1248 9.98628 15.0662 10.0605 15.0607 10.0587C15.0541 10.0568 14.3803 9.88882 13.5623 9.68556C12.7444 9.48322 11.8539 9.2614 11.5825 9.19457L11.0908 9.07205L11.0713 9.01637C11.061 8.98574 11.0406 8.94211 11.0276 8.91891C10.9969 8.86693 10.9151 8.78897 10.8631 8.76298C10.8417 8.75184 10.8222 8.73792 10.8203 8.73143C10.8184 8.72493 10.8017 8.46133 10.7831 8.14484C10.7478 7.53597 10.7134 6.95774 10.6902 6.60411L10.6772 6.39064L10.7023 6.37208C10.7153 6.36187 10.7478 6.33402 10.7738 6.30989C10.7989 6.28576 10.8203 6.26534 10.8212 6.26534C10.8212 6.26534 10.8426 6.27184 10.8677 6.27926ZM10.2264 6.33124C10.2356 6.34238 10.2663 6.36372 10.2933 6.37857C10.323 6.39621 10.3435 6.41384 10.3453 6.42591C10.3481 6.43705 10.3546 6.53357 10.3602 6.64124C10.3704 6.83615 10.3862 7.09974 10.4113 7.50906C10.4188 7.62879 10.4308 7.83948 10.4392 7.97777C10.4476 8.11514 10.4615 8.34717 10.4699 8.49289C10.4857 8.7537 10.4857 8.75649 10.468 8.77134C10.4578 8.77876 10.4253 8.80753 10.3955 8.83538C10.2654 8.95604 10.2254 9.15466 10.2989 9.31523L10.3202 9.36164L10.0293 9.78394L9.73744 10.2053L9.63706 10.21C9.54689 10.2146 9.52923 10.2183 9.47439 10.2452L9.41212 10.2759L9.26619 10.1812C9.18532 10.1292 8.99013 10.0021 8.83118 9.89903C8.56907 9.72825 8.29766 9.55283 7.07909 8.76205C6.85694 8.61819 6.53534 8.41029 6.36617 8.29984L6.05665 8.09936L6.06222 8.04831C6.06594 8.01954 6.07338 7.99169 6.07895 7.98612C6.08453 7.98055 6.15238 7.95085 6.2286 7.92023C6.36803 7.86454 7.22316 7.51648 7.85522 7.25846C8.03926 7.18328 8.56256 6.97073 9.01708 6.7851C9.47254 6.59947 9.91776 6.41848 10.007 6.38136C10.0962 6.34423 10.178 6.3136 10.1892 6.31268C10.1994 6.31175 10.2161 6.32103 10.2264 6.33124ZM16.783 8.23115C16.783 8.25065 17.0033 10.4624 17.0098 10.5042C17.0135 10.5292 17.0107 10.5348 16.9968 10.5348C16.9875 10.5348 16.6966 10.4643 16.3489 10.378C16.0022 10.2916 15.6565 10.2053 15.5793 10.1868C15.5031 10.1682 15.4362 10.1496 15.4324 10.145C15.4278 10.1413 15.4492 10.1032 15.4799 10.0605C15.53 9.98906 15.9158 9.43682 16.1965 9.03586C16.2606 8.94397 16.3378 8.83352 16.3684 8.78897C16.4001 8.74535 16.5023 8.5987 16.5971 8.46226C16.6919 8.32675 16.7718 8.21445 16.7765 8.21445C16.7802 8.21445 16.783 8.22187 16.783 8.23115ZM17.811 9.28182C18.1726 9.79508 18.6002 10.4002 18.76 10.6276C18.9208 10.855 19.0482 11.0416 19.0435 11.0434C19.0398 11.0444 18.7331 10.9701 18.3622 10.8782C17.9923 10.7863 17.6195 10.6935 17.5331 10.6722C17.4476 10.6508 17.3723 10.6304 17.3667 10.6267C17.3602 10.623 17.3137 10.1933 17.2422 9.48044C17.179 8.85301 17.1278 8.33603 17.1269 8.33047C17.1269 8.32583 17.1325 8.32768 17.1399 8.33511C17.1474 8.34253 17.4494 8.76855 17.811 9.28182ZM6.38011 8.70637C6.66732 8.89292 7.04377 9.13703 7.21665 9.24933C7.38954 9.36164 7.9147 9.70227 8.38224 10.0058L9.23366 10.5571L9.23737 10.6462C9.24109 10.7149 9.2476 10.7464 9.26712 10.7891C9.28013 10.8188 9.2885 10.8476 9.28571 10.8522C9.28199 10.8578 9.19833 10.9775 9.09795 11.1186C8.99849 11.2597 8.88603 11.4184 8.84792 11.4722C7.56243 13.2905 7.60518 13.2311 7.57637 13.2264C7.53268 13.219 7.39419 13.2218 7.35236 13.2302L7.31518 13.2376L6.16261 11.8602C5.52962 11.1038 4.92824 10.3854 4.82786 10.2647L4.64382 10.0448L4.66148 10.0048C4.70702 9.90182 4.7033 9.76352 4.65311 9.65679L4.62523 9.59831L4.75814 9.41918C4.83064 9.3208 5.03234 9.04699 5.20616 8.81032C5.48036 8.4372 5.52405 8.38151 5.54078 8.38708C5.551 8.38987 5.59469 8.39544 5.63837 8.39729C5.70065 8.40008 5.72946 8.39729 5.77315 8.38244C5.80382 8.37316 5.83543 8.36481 5.84379 8.36574C5.85123 8.36666 6.0929 8.51981 6.38011 8.70637ZM12.3075 9.71804C13.0083 9.89161 13.8681 10.1051 14.2204 10.1923C14.5717 10.2796 14.8589 10.3548 14.8589 10.3585C14.8589 10.3631 14.7614 10.506 14.6424 10.6759C14.5234 10.8457 14.3143 11.1437 14.1795 11.3377C14.0438 11.5316 13.8096 11.8658 13.6599 12.0802C13.5103 12.2946 13.3457 12.5303 13.2946 12.6027C13.2435 12.676 13.1961 12.7382 13.1896 12.741C13.184 12.7429 13.0976 12.6918 12.999 12.6269C12.8996 12.5619 12.7667 12.4746 12.7025 12.4329C12.1393 12.0644 11.1354 11.4045 11.1298 11.3989C11.1233 11.3933 11.0815 10.9748 10.969 9.80622L10.9365 9.47301L10.9746 9.43403C10.996 9.41176 11.0183 9.39598 11.0239 9.39876C11.0294 9.40062 11.6076 9.54448 12.3075 9.71804ZM10.6112 9.5714C10.6112 9.58068 10.6809 10.3037 10.7506 11.0184C10.7571 11.0787 10.7599 11.1335 10.758 11.1418C10.7562 11.152 10.7134 11.1288 10.5907 11.0472C10.4996 10.9877 10.3444 10.8857 10.2449 10.8198L10.0646 10.701L10.0609 10.6156C10.0581 10.5506 10.0507 10.5153 10.0312 10.468L10.0061 10.4049L10.2124 10.106C10.3258 9.9408 10.4569 9.75146 10.5033 9.6837C10.5805 9.57233 10.6112 9.53984 10.6112 9.5714ZM16.1277 10.6657C16.6231 10.7891 17.034 10.894 17.0405 10.9005C17.047 10.907 17.073 11.1325 17.1074 11.4769C17.1381 11.7878 17.1873 12.2788 17.2161 12.5665L17.2682 13.09L16.967 13.3926C16.8016 13.5587 16.4846 13.8771 16.2625 14.1008L15.8582 14.5054L15.7234 14.4163C15.649 14.3662 15.5049 14.2715 15.4027 14.2047C14.3505 13.516 13.4945 12.9536 13.4842 12.9434C13.474 12.9331 13.5298 12.8478 13.8281 12.4217C14.0243 12.1424 14.3784 11.6356 14.6154 11.2959C14.8534 10.9562 15.0848 10.6258 15.1304 10.5599C15.1759 10.4949 15.2159 10.442 15.2196 10.442C15.2224 10.442 15.6314 10.5432 16.1277 10.6657ZM5.8345 11.9874C7.20364 13.6237 7.07351 13.4678 7.06701 13.4733C7.06422 13.4761 6.94152 13.4631 6.79373 13.4455C6.56787 13.4176 5.78523 13.323 5.62164 13.3044C5.57889 13.2988 5.57052 13.2951 5.56216 13.2738C5.50453 13.1355 5.47014 13.0863 5.39113 13.0343C5.36324 13.0157 5.31491 12.9925 5.28331 12.9814L5.22661 12.9619L5.19222 12.8273C5.12436 12.5637 5.01283 12.1331 4.97379 11.9827C4.95241 11.8983 4.9143 11.7525 4.89013 11.6579C4.86597 11.5632 4.82879 11.4175 4.80648 11.333C4.7693 11.1901 4.61407 10.5859 4.60106 10.5348C4.59455 10.5116 4.59455 10.5116 4.61314 10.5302C4.62337 10.5404 5.1727 11.1957 5.8345 11.9874ZM10.3416 11.282C10.5898 11.4444 10.7952 11.5799 10.7989 11.5827C10.8064 11.5892 10.8184 11.7098 10.8909 12.4514C10.982 13.3963 11.0108 13.6952 11.0806 14.4098C11.1196 14.808 11.154 15.1672 11.1568 15.208L11.1605 15.2823L11.1233 15.3083C11.0722 15.3435 11.0266 15.402 10.9913 15.4753C10.969 15.5245 10.9588 15.5375 10.9421 15.5375C10.9309 15.5375 10.7813 15.5561 10.6102 15.5784C10.4392 15.6016 10.1539 15.6387 9.97446 15.6628C9.796 15.686 9.50972 15.7241 9.33869 15.7473C9.16766 15.7696 9.01615 15.7881 9.00128 15.7881C8.98269 15.7881 8.77634 15.6545 8.25769 15.3083C7.33005 14.6892 7.30774 14.6743 7.30403 14.6651C7.29938 14.6539 7.51502 14.0775 7.52803 14.0655C7.53454 14.0599 7.56336 14.0488 7.59217 14.0404C7.62098 14.0311 7.66932 14.0079 7.69906 13.9875C7.8515 13.8864 7.92121 13.6822 7.86265 13.5067C7.85057 13.4705 7.85057 13.464 7.86544 13.4418C7.87474 13.4278 8.11826 13.0826 8.40734 12.6742C9.12769 11.656 9.25132 11.4797 9.41491 11.2467L9.55619 11.0444L9.60266 11.049C9.66959 11.0564 9.76161 11.0397 9.8211 11.0091C9.84898 10.9952 9.87687 10.984 9.88151 10.985C9.88709 10.9868 10.0944 11.1205 10.3416 11.282ZM18.1215 11.1613C18.5026 11.256 18.8409 11.3404 18.8744 11.3479C18.9078 11.3553 18.9404 11.3636 18.9478 11.3664C18.9636 11.372 18.9692 11.3664 18.1875 12.1563C17.8528 12.4951 17.5777 12.7698 17.5759 12.7679C17.5712 12.7642 17.3965 11.0379 17.3965 11.0007C17.3965 10.984 17.4002 10.9803 17.4132 10.984C17.4216 10.9868 17.7404 11.0666 18.1215 11.1613ZM19.2239 11.6634C19.2824 11.6922 19.2768 11.6681 19.2973 11.9827C19.3112 12.1916 19.3307 12.4737 19.4135 13.6441L19.4506 14.1685L19.4246 14.1871C19.2908 14.2845 19.2164 14.4423 19.2322 14.5955L19.2387 14.653L19.1467 14.718C19.0965 14.7542 18.8902 14.8999 18.6885 15.0419C18.4868 15.1839 18.2358 15.3593 18.1317 15.4326L17.943 15.5663L17.8956 15.5431L17.8482 15.5208L17.7339 14.3894C17.6716 13.7675 17.6205 13.2459 17.6223 13.2292C17.6242 13.2032 17.7097 13.1132 18.2795 12.5378C18.6401 12.1739 18.9868 11.8231 19.05 11.7572C19.1132 11.6922 19.1672 11.6393 19.1699 11.6393C19.1727 11.6393 19.1969 11.6504 19.2239 11.6634ZM11.3836 11.966C11.4877 12.0347 11.6819 12.1619 11.8149 12.2491C12.287 12.56 12.6811 12.8181 12.8345 12.9174C12.92 12.9721 12.9897 13.0222 12.9897 13.0278C12.9907 13.0334 12.9163 13.1438 12.8252 13.2738C12.7341 13.4037 12.5928 13.6051 12.511 13.723C12.4283 13.8399 12.1969 14.1722 11.9952 14.4609C11.7935 14.7495 11.6001 15.0261 11.5648 15.0753C11.5304 15.1254 11.4988 15.1663 11.4951 15.1663C11.4914 15.1663 11.4756 15.0252 11.4589 14.8526C11.4431 14.6808 11.3975 14.2158 11.3594 13.8205C11.2823 13.0371 11.2767 12.974 11.2339 12.535C11.2181 12.3716 11.1995 12.1748 11.1921 12.0987C11.1633 11.8129 11.1642 11.8305 11.18 11.837C11.1884 11.8398 11.2795 11.8983 11.3836 11.966ZM13.7231 13.5021C13.962 13.659 14.2557 13.8511 14.3756 13.93C14.4955 14.0089 14.6424 14.1054 14.7009 14.1434C14.7595 14.1824 14.9101 14.2808 15.0356 14.3634C15.161 14.4451 15.3339 14.5583 15.4204 14.614C15.5059 14.6706 15.5867 14.7245 15.5988 14.7347L15.6211 14.7532L14.739 15.6443L13.857 16.5353L13.8207 16.5306C13.6962 16.5139 13.5902 16.5362 13.4991 16.5965L13.4563 16.6244L13.1282 16.4415C12.9479 16.3404 12.5724 16.1306 12.2935 15.9738L11.787 15.6907L11.7851 15.6535C11.7805 15.5876 11.7628 15.5088 11.7433 15.4679L11.7247 15.4299L11.9933 15.0447C12.142 14.8331 12.4135 14.4451 12.5975 14.1824C12.7806 13.9198 13.0083 13.5949 13.1022 13.4603C13.1961 13.3267 13.276 13.2172 13.2807 13.2172C13.2862 13.2172 13.4852 13.3452 13.7231 13.5021ZM17.3128 13.5299C17.3128 13.5346 17.3584 13.9903 17.4141 14.5444C17.4969 15.3649 17.5136 15.5533 17.5034 15.5635C17.4941 15.5737 17.3779 15.5013 16.8378 15.1477C16.4781 14.912 16.176 14.7124 16.1677 14.7031C16.1528 14.6892 16.19 14.6502 16.7226 14.1128C17.0368 13.7963 17.2933 13.5346 17.2942 13.5299C17.2942 13.5262 17.2989 13.5234 17.3035 13.5234C17.3091 13.5234 17.3128 13.5262 17.3128 13.5299ZM16.1128 15.0697C16.3573 15.2303 16.5776 15.376 16.9735 15.635C17.1474 15.7491 17.2942 15.8466 17.3007 15.8522C17.3072 15.8577 17.31 15.8744 17.3063 15.8939C17.2989 15.9413 17.3202 16.0489 17.35 16.112C17.3816 16.1779 17.4485 16.2531 17.5061 16.2865L17.5461 16.3107L17.5415 16.3998C17.5387 16.449 17.5331 16.5965 17.5303 16.7274L17.5247 16.9659L17.4708 16.9984C17.3695 17.0615 17.2989 17.1655 17.2728 17.2908C17.2663 17.3233 17.2552 17.3539 17.2477 17.3576C17.2338 17.366 17.1966 17.3808 16.7691 17.5562C16.6361 17.6101 16.309 17.7447 16.0422 17.8542L15.5561 18.0537L15.504 18.0166C15.4371 17.9693 15.3637 17.9414 15.2865 17.9349C15.2307 17.9303 15.2047 17.934 15.096 17.9646C15.0811 17.9683 14.9779 17.8792 14.6033 17.5395C14.1665 17.1432 14.1293 17.107 14.1321 17.082C14.1442 16.9483 14.1432 16.875 14.1293 16.8276C14.1209 16.7998 14.1135 16.772 14.1126 16.7655C14.1107 16.7553 14.358 16.5028 15.5412 15.3046C15.7364 15.1078 15.9009 14.9454 15.9083 14.9454C15.9149 14.9444 16.0069 15.0001 16.1128 15.0697ZM12.6096 16.5344L13.3104 16.927L13.3216 16.9975C13.3364 17.0903 13.3773 17.1776 13.4368 17.2397C13.4824 17.288 13.5642 17.3391 13.6153 17.3511C13.6329 17.3548 13.6432 17.366 13.6497 17.3864C13.6543 17.4031 13.7454 17.6927 13.8504 18.0296C13.9555 18.3665 14.0559 18.6858 14.0735 18.7396C14.1237 18.8965 14.2176 19.2 14.2176 19.2065C14.2176 19.2102 14.0782 19.213 13.9071 19.213H13.5967L13.5195 19.0803C13.4768 19.0079 13.3996 18.8751 13.3476 18.786C13.2965 18.6969 13.2212 18.567 13.1812 18.4983C13.1412 18.4296 12.92 18.0472 12.6886 17.6491C12.4571 17.2509 12.1671 16.7497 12.0426 16.5353C11.918 16.3209 11.8074 16.1306 11.7953 16.112C11.7833 16.0935 11.7767 16.0758 11.7786 16.0731C11.7814 16.0703 11.8121 16.0842 11.8455 16.1046C11.8799 16.125 12.2238 16.3181 12.6096 16.5344Z" fill="black"></path></svg>